<?xml version="1.0" encoding="UTF-8"?>
<svg xmlns="http://www.w3.org/2000/svg" xmlns:xlink="http://www.w3.org/1999/xlink" width="64pt" height="64pt" viewBox="0 0 64 64" version="1.1">
<g id="surface18469873">
<path style=" stroke:none;fill-rule:nonzero;fill:rgb(80.000001%,80.000001%,80.000001%);fill-opacity:1;" d="M 60 33 C 60 48.464844 47.464844 61 32 61 C 16.535156 61 4 48.464844 4 33 C 4 17.535156 16.535156 5 32 5 C 47.464844 5 60 17.535156 60 33 Z M 60 33 "/>
<path style=" stroke:none;fill-rule:nonzero;fill:rgb(20.392157%,28.627452%,36.862746%);fill-opacity:1;" d="M 25.953125 8.875 C 25.140625 9.070312 24.332031 9.3125 23.546875 9.597656 C 23.027344 9.78125 22.757812 10.355469 22.945312 10.875 C 23.132812 11.394531 23.703125 11.664062 24.226562 11.476562 C 24.941406 11.21875 25.679688 10.996094 26.421875 10.820312 C 26.578125 10.78125 26.714844 10.710938 26.828125 10.613281 C 27.109375 10.378906 27.25 9.992188 27.160156 9.613281 C 27.03125 9.074219 26.492188 8.746094 25.953125 8.875 Z M 25.953125 8.875 "/>
<path style=" stroke:none;fill-rule:nonzero;fill:rgb(20.392157%,28.627452%,36.862746%);fill-opacity:1;" d="M 43.988281 49.089844 C 43.707031 48.609375 43.09375 48.449219 42.617188 48.730469 C 42.140625 49.007812 41.980469 49.617188 42.257812 50.097656 L 43.265625 51.824219 C 43.542969 52.300781 44.15625 52.460938 44.632812 52.183594 C 44.789062 52.09375 44.910156 51.96875 44.996094 51.820312 C 45.167969 51.519531 45.179688 51.136719 44.992188 50.816406 Z M 43.988281 49.089844 "/>
<path style=" stroke:none;fill-rule:nonzero;fill:rgb(20.392157%,28.627452%,36.862746%);fill-opacity:1;" d="M 19.445312 11.558594 C 14.964844 14.273438 11.515625 18.46875 9.734375 23.371094 C 9.546875 23.890625 9.816406 24.464844 10.335938 24.652344 C 10.679688 24.777344 11.054688 24.699219 11.320312 24.476562 C 11.449219 24.367188 11.550781 24.222656 11.613281 24.054688 C 13.238281 19.578125 16.390625 15.75 20.480469 13.269531 C 20.960938 12.972656 21.105469 12.367188 20.820312 11.894531 C 20.535156 11.421875 19.917969 11.273438 19.445312 11.558594 Z M 19.445312 11.558594 "/>
<path style=" stroke:none;fill-rule:nonzero;fill:rgb(20.392157%,28.627452%,36.862746%);fill-opacity:1;" d="M 47.851562 45.769531 C 47.460938 45.378906 46.828125 45.382812 46.4375 45.773438 C 46.058594 46.160156 46.050781 46.796875 46.445312 47.1875 L 47.863281 48.597656 C 48.257812 48.984375 48.890625 48.984375 49.277344 48.589844 C 49.339844 48.527344 49.390625 48.460938 49.433594 48.386719 C 49.65625 48.003906 49.601562 47.503906 49.273438 47.175781 Z M 47.851562 45.769531 "/>
<path style=" stroke:none;fill-rule:nonzero;fill:rgb(20.392157%,28.627452%,36.862746%);fill-opacity:1;" d="M 54.800781 31.65625 L 52.796875 31.664062 C 52.242188 31.667969 51.800781 32.113281 51.800781 32.667969 C 51.804688 33.222656 52.253906 33.664062 52.804688 33.664062 L 54.804688 33.65625 C 55.175781 33.652344 55.496094 33.453125 55.667969 33.15625 C 55.753906 33.007812 55.804688 32.835938 55.804688 32.652344 C 55.800781 32.101562 55.351562 31.65625 54.800781 31.65625 Z M 54.800781 31.65625 "/>
<path style=" stroke:none;fill-rule:nonzero;fill:rgb(20.392157%,28.627452%,36.862746%);fill-opacity:1;" d="M 52.464844 42.550781 L 50.726562 41.558594 C 50.246094 41.28125 49.640625 41.449219 49.363281 41.925781 C 49.363281 41.925781 49.363281 41.925781 49.359375 41.929688 C 49.085938 42.40625 49.253906 43.019531 49.734375 43.292969 L 51.46875 44.285156 C 51.949219 44.558594 52.554688 44.394531 52.832031 43.917969 C 52.832031 43.917969 52.832031 43.914062 52.835938 43.914062 C 53.109375 43.433594 52.941406 42.824219 52.464844 42.550781 Z M 52.464844 42.550781 "/>
<path style=" stroke:none;fill-rule:nonzero;fill:rgb(20.392157%,28.627452%,36.862746%);fill-opacity:1;" d="M 52.421875 11.40625 C 46.949219 5.980469 39.703125 3 32.003906 3 C 31.964844 3 31.921875 3 31.878906 3 C 24.132812 3.03125 16.859375 6.078125 11.40625 11.582031 C 5.953125 17.082031 2.96875 24.378906 3 32.121094 C 3.03125 39.867188 6.078125 47.140625 11.578125 52.59375 C 17.050781 58.019531 24.296875 61 31.996094 61 C 32.035156 61 32.078125 61 32.121094 61 C 39.867188 60.96875 47.140625 57.921875 52.59375 52.417969 C 58.046875 46.917969 61.03125 39.621094 61 31.878906 C 60.96875 24.132812 57.921875 16.859375 52.421875 11.40625 Z M 51.171875 51.011719 C 47.355469 54.859375 42.582031 57.417969 37.382812 58.464844 L 35.382812 58.78125 C 34.308594 58.917969 33.21875 58.996094 32.113281 59 C 30.8125 59.003906 29.527344 58.914062 28.261719 58.738281 L 26.265625 58.382812 C 21.28125 57.308594 16.695312 54.847656 12.988281 51.175781 C 7.867188 46.09375 5.03125 39.324219 5 32.113281 C 4.96875 24.902344 7.75 18.109375 12.828125 12.988281 C 17.90625 7.867188 24.675781 5.03125 31.886719 5 C 31.925781 5 31.964844 5 32.003906 5 C 39.171875 5 45.917969 7.777344 51.011719 12.828125 C 56.132812 17.90625 58.96875 24.675781 59 31.886719 C 59.03125 39.097656 56.25 45.890625 51.171875 51.011719 Z M 51.171875 51.011719 "/>
<path style=" stroke:none;fill-rule:nonzero;fill:rgb(20.392157%,28.627452%,36.862746%);fill-opacity:1;" d="M 54.347656 37.257812 L 52.414062 36.746094 C 51.878906 36.605469 51.335938 36.929688 51.191406 37.460938 C 51.050781 37.992188 51.367188 38.539062 51.902344 38.679688 L 53.839844 39.191406 C 54.285156 39.308594 54.738281 39.105469 54.957031 38.726562 C 55.003906 38.648438 55.035156 38.566406 55.058594 38.476562 C 55.199219 37.941406 54.882812 37.394531 54.347656 37.257812 Z M 54.347656 37.257812 "/>
<path style=" stroke:none;fill-rule:nonzero;fill:rgb(100%,97.254902%,93.333334%);fill-opacity:1;" d="M 31 40 L 18 40 L 18 24 L 25.5 24 C 27.984375 24 30 26.015625 30 28.5 C 30 30.984375 27.984375 33 25.5 33 L 25 33 Z M 31 40 "/>
<path style=" stroke:none;fill-rule:nonzero;fill:rgb(100%,97.254902%,93.333334%);fill-opacity:1;" d="M 43 32 L 40 32 C 42.210938 32 44 30.210938 44 28 C 44 25.789062 42.210938 24 40 24 L 34 24 L 34 40 L 43 40 C 45.210938 40 47 38.210938 47 36 C 47 33.789062 45.210938 32 43 32 Z M 43 32 "/>
<path style=" stroke:none;fill-rule:nonzero;fill:rgb(20.392157%,28.627452%,36.862746%);fill-opacity:1;" d="M 31 41 L 18 41 C 17.449219 41 17 40.554688 17 40 L 17 24 C 17 23.445312 17.449219 23 18 23 L 25.5 23 C 28.53125 23 31 25.46875 31 28.5 C 31 31.015625 29.304688 33.140625 26.996094 33.792969 L 31.761719 39.351562 C 32.015625 39.644531 32.070312 40.0625 31.910156 40.417969 C 31.746094 40.773438 31.390625 41 31 41 Z M 19 39 L 28.824219 39 L 24.242188 33.648438 C 23.988281 33.355469 23.929688 32.9375 24.09375 32.582031 C 24.253906 32.226562 24.609375 32 25 32 L 25.5 32 C 27.429688 32 29 30.429688 29 28.5 C 29 26.570312 27.429688 25 25.5 25 L 19 25 Z M 19 39 "/>
<path style=" stroke:none;fill-rule:nonzero;fill:rgb(20.392157%,28.627452%,36.862746%);fill-opacity:1;" d="M 43 41 L 34 41 C 33.449219 41 33 40.554688 33 40 L 33 24 C 33 23.445312 33.449219 23 34 23 L 40 23 C 42.757812 23 45 25.242188 45 28 C 45 29.164062 44.601562 30.234375 43.929688 31.085938 C 46.246094 31.523438 48 33.5625 48 36 C 48 38.757812 45.757812 41 43 41 Z M 35 39 L 43 39 C 44.652344 39 46 37.652344 46 36 C 46 34.347656 44.652344 33 43 33 L 40 33 C 39.449219 33 39 32.554688 39 32 C 39 31.445312 39.449219 31 40 31 C 41.652344 31 43 29.652344 43 28 C 43 26.347656 41.652344 25 40 25 L 35 25 Z M 35 39 "/>
</g>
</svg>
